<?xml version="1.0" standalone="no"?>
<!DOCTYPE svg PUBLIC "-//W3C//DTD SVG 20010904//EN" "http://www.w3.org/TR/2001/REC-SVG-20010904/DTD/svg10.dtd">
<svg viewBox="0 0 2218.642334 3000.000000" xmlns="http://www.w3.org/2000/svg">
	<title>/var/www/dwgconverter.org/temp/8323b5head_circuar_back_rib.dxf</title>
	<desc>AutoCAD drawing</desc>
	<rect x="0" y="0" width="2218.642334" height="3000.000000" fill="black" />
	<g fill="none" stroke-width="0.50mm" >
		<path stroke="#FFFFFF" d="M1978 2799L2218 2799M1978 2924L1978 2799M1822 2924L1978 2924M1822 3000L1822 2924M1067 3000L1822 3000M1067 2924L1067 3000M612 2924L1067 2924M612 3000L612 2924M108 3000L612 3000M108 2924L108 3000M0 2924L108 2924M0 2924L0 2741L138 2575L1717 2575L1855 2411L1790 520M1648 350L1790 520M1648 350L1198 350M1091 223L1198 350M1091 223L1091 1M1742 1L1091 1M1742 1L1742 127M2127 127L1742 127M2137 417L2127 127M2137 417L2091 417L2095 529L2140 529M2198 2224L2140 529M2198 2224L2152 2224L2152 2336L2202 2336M2218 2799L2202 2336" />
	</g>
</svg>
